<svg xmlns="http://www.w3.org/2000/svg" version="1.1" xmlns:xlink="http://www.w3.org/1999/xlink" viewBox="0 0 200 200"><rect width="200" height="200" fill="url('#gradient')"></rect><defs><linearGradient id="gradient" gradientTransform="rotate(45 0.5 0.5)"><stop offset="0%" stop-color="#e9e9e9"></stop><stop offset="100%" stop-color="#e9e9e9"></stop></linearGradient></defs><g><g fill="#2a2a2a" transform="matrix(7.25383707201889,0,0,7.25383707201889,9.724710251770944,151.57415741703164)" stroke="#6b6b6b" stroke-width="0.3"><path d="M4.05-14.22L6.38-9.49L8.70-14.22L12.62-14.22L8.64-7.17L12.72 0L8.77 0L6.38-4.81L3.98 0L0.04 0L4.11-7.17L0.15-14.22L4.05-14.22ZM19.61 0L13.84 0L13.84-14.22L18.95-14.22Q21.69-14.22 23.12-13.21Q24.55-12.21 24.55-10.29L24.55-10.29Q24.55-9.19 24.04-8.41Q23.54-7.63 22.55-7.26L22.55-7.26Q23.66-6.96 24.26-6.16Q24.85-5.36 24.85-4.21L24.85-4.21Q24.85-2.12 23.53-1.07Q22.21-0.02 19.61 0L19.61 0ZM19.67-6.04L17.27-6.04L17.27-2.64L19.51-2.64Q20.44-2.64 20.94-3.06Q21.44-3.49 21.44-4.26L21.44-4.26Q21.44-6.04 19.67-6.04L19.67-6.04ZM17.27-11.57L17.27-8.29L19.05-8.29Q20.18-8.30 20.65-8.70Q21.13-9.10 21.13-9.88L21.13-9.88Q21.13-10.78 20.62-11.18Q20.10-11.57 18.95-11.57L18.95-11.57L17.27-11.57Z"></path></g></g></svg>